# xmcd
#
# Track frame offsets:
#	150
#	18280
#	47204
#	67393
#	84476
#	107287
#	127244
#	147941
#	184394
#	210306
#	233151
#	254231
#	274779
#	300318
#	314911
#
# Disc length: 4668 seconds
#
# Revision: 0
# Processed by: cddbd v1.5.1PL2 Copyright (c) Steve Scherf et al.
# Submitted via: dBpowerAMP V4.0
#
DISCID=e4123a0f
DTITLE=Grand Drive - Being Alive
DYEAR=2005
DGENRE=
TTITLE0=Shake My Tree
TTITLE1=Something To Believe In
TTITLE2=I Know There's A Place
TTITLE3=I Want You (And I'm Right)
TTITLE4=I'll Be There For You
TTITLE5=When A Champ Hangs Up His Gloves
TTITLE6=Being Alive
TTITLE7=The Fair Goes Slow
TTITLE8=Holding On
TTITLE9=Rolling Over
TTITLE10=She loves The Jerk
TTITLE11=The First Time Again
TTITLE12=Wing In The Wind
TTITLE13=Hearts Of Stone
TTITLE14=The Premise
EXTD=
EXTT0=
EXTT1=
EXTT2=
EXTT3=
EXTT4=
EXTT5=
EXTT6=
EXTT7=
EXTT8=
EXTT9=
EXTT10=
EXTT11=
EXTT12=
EXTT13=
EXTT14=
PLAYORDER=
